<?xml version="1.0" encoding="UTF-8"?>
<svg version="1.1" xmlns="http://www.w3.org/2000/svg" width="2360" height="1640">
<path d="M0 0 C99.77096764 -2.13413835 200.81826173 22.12718344 312.58642578 101.08178711 C316.8020705 104.69621384 321.13618811 108.1341875 325.54785156 111.5078125 C326.11890625 112.02214844 326.68996094 112.53648437 327.27832031 113.06640625 C327.27832031 113.72640625 327.27832031 114.38640625 327.27832031 115.06640625 C327.84059326 115.30343262 328.40286621 115.54045898 328.98217773 115.78466797 C331.80480864 117.36029926 333.73604037 119.28214983 336.01660156 121.57421875 C336.91958984 122.47914063 337.82257813 123.3840625 338.75292969 124.31640625 C339.21981201 124.78949219 339.68669434 125.26257813 340.16772461 125.75 C341.57066152 127.17098808 342.98205524 128.58361068 344.39355469 129.99609375 C349.55820159 135.19377677 354.53312589 140.48427749 359.27832031 146.06640625 C360.16710363 147.08770942 361.05639292 148.10857258 361.94628906 149.12890625 C421.60255394 218.68163678 454.96421921 307.5697225 467.52832031 403.94140625 C467.75515503 405.75354614 467.75515503 405.75354614 467.98657227 407.60229492 C470.68500783 430.73326629 471.66081713 453.86780991 471.59637833 477.14598465 C471.59070869 479.23248624 471.58790587 481.3189796 471.58529663 483.40548706 C471.54242943 507.05296393 470.76609456 530.53838175 468.27832031 554.06640625 C468.19346375 554.87478943 468.10860718 555.68317261 468.0211792 556.51605225 C464.54226086 589.25277881 459.77137723 622.47905511 450.27832031 654.06640625 C450.02163574 654.92186035 449.76495117 655.77731445 449.50048828 656.65869141 C448.73830514 659.15572609 447.95374884 661.64388744 447.15332031 664.12890625 C446.80901978 665.21026855 446.80901978 665.21026855 446.45776367 666.31347656 C444.97493171 670.71087665 443.15623149 674.36060281 440.27832031 678.06640625 C436.66030814 679.43321085 434.65203053 679.15637352 430.90332031 678.25390625 C421.67554527 673.71826265 415.76940944 660.97144304 410.32803345 652.54898071 C408.01840711 648.97559754 405.68999289 645.41447307 403.36425781 641.8515625 C402.91482315 641.16211044 402.46538849 640.47265839 402.00233459 639.76231384 C392.10206501 624.58452006 381.93783903 609.83146113 369.56347656 596.5390625 C367.64928148 594.46780526 365.8324442 592.35725924 364.02832031 590.19140625 C353.88026236 578.60374008 341.70306444 569.07087226 329.27832031 560.06640625 C328.66939941 559.62200195 328.06047852 559.17759766 327.43310547 558.71972656 C279.27970007 523.96378735 222.79345019 516.59312884 164.90332031 516.75390625 C163.65980804 516.75439972 162.41629578 516.75489319 161.13510132 516.75540161 C128.15065969 516.79458139 95.2126618 518.3671296 62.27832031 520.06640625 C61.29329529 520.1158136 60.30827026 520.16522095 59.293396 520.21612549 C56.84406924 520.33973803 54.39514324 520.46896296 51.94628906 520.6015625 C50.69485107 520.66867432 49.44341309 520.73578613 48.15405273 520.80493164 C45.21000812 520.96194118 45.21000812 520.96194118 42.27832031 522.06640625 C42.89578125 522.81921875 43.51324219 523.57203125 44.14941406 524.34765625 C74.88946241 562.57542981 88.30981335 617.81917452 89.27832031 666.06640625 C89.29878418 666.90913086 89.31924805 667.75185547 89.34033203 668.62011719 C90.75374321 735.17893438 67.4607416 799.72137744 21.74707031 848.41015625 C19.76580029 850.54190248 17.88625004 852.70430719 16.02832031 854.94140625 C6.96871879 865.34156934 -3.80031608 874.34619121 -14.79931641 882.61523438 C-16.86053477 884.1712265 -18.90168776 885.75175638 -20.94433594 887.33203125 C-98.54185237 946.66537282 -202.14737231 975.25787741 -343.07519531 972.55810547 C-385.56932727 966.82811205 -428.84730462 955.36359477 -467.72167969 937.06640625 C-468.51783691 936.70434082 -469.31399414 936.34227539 -470.13427734 935.96923828 C-489.52031488 927.12790736 -507.28315297 915.22120185 -523.65136719 901.6171875 C-526.3164215 899.40309022 -529.02292748 897.28284975 -531.78417969 895.19140625 C-534.45777055 893.15103427 -536.75497083 891.03742971 -539.03417969 888.56640625 C-539.92105469 887.74140625 -540.80792969 886.91640625 -541.72167969 886.06640625 C-546.14309881 886.57008423 -549.71129046 889.32171116 -553.40917969 891.62890625 C-554.579729 892.35158691 -554.579729 892.35158691 -555.77392578 893.08886719 C-563.58665776 897.93521909 -571.31919263 902.90789729 -579.05419922 907.87695312 C-589.22602722 914.40731892 -599.47190862 920.8149105 -609.73339844 927.203125 C-612.74302028 929.07971274 -615.74857585 930.9626477 -618.75292969 932.84765625 C-629.55484813 939.62222943 -640.3936714 946.32852893 -651.29492188 952.94213867 C-658.42236695 957.26794957 -665.51978527 961.63995989 -672.60400391 966.03613281 C-678.47010911 969.67550344 -684.34654669 973.2976111 -690.22875977 976.91088867 C-702.76706666 984.61316346 -715.26272874 992.38076722 -727.73193359 1000.19433594 C-730.78292428 1002.10475539 -733.83595247 1004.01187686 -736.88964844 1005.91796875 C-755.56856741 1017.57749675 -774.18455422 1029.33327974 -792.75048828 1041.171875 C-794.79738233 1042.47704327 -796.84460213 1043.78170075 -798.89208984 1045.0859375 C-802.14887583 1047.16105778 -805.40419463 1049.23846245 -808.65917969 1051.31640625 C-809.64031738 1051.9412793 -810.62145508 1052.56615234 -811.63232422 1053.20996094 C-817.62966871 1057.04290289 -823.57290513 1060.95105692 -829.48832703 1064.90879822 C-835.02280618 1068.60880526 -840.58056448 1072.272715 -846.14355469 1075.9296875 C-847.06278214 1076.53430817 -847.98200958 1077.13892883 -848.92909241 1077.76187134 C-852.72317913 1080.25728451 -856.51748068 1082.75236475 -860.31347656 1085.24487305 C-870.31274596 1091.81185354 -880.2896572 1098.40678636 -890.16699219 1105.15625 C-891.30802399 1105.93528435 -891.30802399 1105.93528435 -892.47210693 1106.73005676 C-896.99852724 1109.83716236 -901.44797924 1113.03122927 -905.84667969 1116.31640625 C-920.39775099 1127.12479576 -935.6350258 1137.02835811 -950.72167969 1147.06640625 C-953.00428916 1148.58776466 -955.286567 1150.10961825 -957.56860352 1151.63183594 C-959.05703287 1152.62355959 -960.54652301 1153.61369236 -962.03686523 1154.60253906 C-965.50468336 1156.90590843 -968.96036146 1159.21900427 -972.36621094 1161.61328125 C-973.93435547 1162.70382812 -973.93435547 1162.70382812 -975.53417969 1163.81640625 C-976.87416016 1164.76773437 -976.87416016 1164.76773437 -978.24121094 1165.73828125 C-981.02862937 1167.23075726 -982.61857338 1167.17625072 -985.72167969 1167.06640625 C-991.30070021 1149.71848504 -994.42777654 1131.46164863 -996.97167969 1113.44140625 C-997.12241943 1112.39815186 -997.27315918 1111.35489746 -997.4284668 1110.2800293 C-1000.41523293 1087.88684688 -1001.1016555 1065.38175155 -1001.0397377 1042.81586838 C-1001.03407433 1040.71482008 -1001.03126802 1038.61377994 -1001.02865601 1036.51272583 C-1000.98984846 1015.00165654 -1000.41446442 993.65588354 -997.97167969 972.26818848 C-997.71232009 969.98397511 -997.46431755 967.69871581 -997.21777344 965.41308594 C-988.0948503 881.81697141 -964.74264618 800.01702346 -898.58428955 647.82092285 C-897.79840476 646.22246221 -897.01549583 644.62253936 -896.23291016 643.02246094 C-876.26858173 602.21270096 -852.8268592 562.9056296 -827.72167969 525.06640625 C-826.97000908 523.92602408 -826.21864763 522.78543798 -825.46777344 521.64453125 C-823.56854223 518.77387698 -821.65029652 515.91740505 -819.72167969 513.06640625 C-819.26647949 512.39254883 -818.8112793 511.71869141 -818.34228516 511.02441406 C-810.8663337 499.97383702 -803.1987269 489.08313536 -795.34228516 478.30029297 C-793.72009498 476.06422184 -792.11149915 473.81898771 -790.50683594 471.5703125 C-780.97778334 458.23657224 -770.98248628 445.29158895 -760.69433594 432.53515625 C-759.18751134 430.64938764 -757.69741717 428.75457976 -756.21777344 426.84765625 C-750.9938799 420.12341298 -745.64419657 413.55195435 -740.0690918 407.11523438 C-736.99454169 403.56371109 -733.98851359 399.96950434 -731.03417969 396.31640625 C-727.43412801 391.88306956 -723.68264482 387.62127279 -719.83886719 383.3984375 C-717.941168 381.30816736 -716.07434554 379.1965451 -714.22167969 377.06640625 C-706.54345899 368.26110728 -698.64263391 359.65306503 -690.72167969 351.06640625 C-689.96966278 350.24903992 -689.96966278 350.24903992 -689.20245361 349.41516113 C-678.50013866 337.80539797 -667.40721225 326.59527768 -656.23071289 315.44506836 C-653.75439426 312.9745098 -651.28268277 310.49939765 -648.81221104 308.02299404 C-646.41077514 305.61705272 -644.00551268 303.21495199 -641.60058594 300.8125 C-640.72648575 299.93637558 -639.85238556 299.06025116 -638.95179749 298.15757751 C-634.56084992 293.78326786 -630.10592334 289.55520503 -625.40562439 285.51454163 C-623.4614098 283.84258297 -621.58292651 282.11127071 -619.72167969 280.34765625 C-619.06167969 279.72503906 -618.40167969 279.10242188 -617.72167969 278.4609375 C-617.06167969 277.83574219 -616.40167969 277.21054687 -615.72167969 276.56640625 C-610.48919255 271.60985105 -605.18025907 266.7732804 -599.72167969 262.06640625 C-598.87234863 261.33381592 -598.87234863 261.33381592 -598.00585938 260.58642578 C-596.3718161 259.18114856 -594.73492237 257.77928498 -593.09667969 256.37890625 C-589.45538399 253.26616984 -585.8157925 250.1520517 -582.19824219 247.01171875 C-575.95236664 241.60049699 -569.62717133 236.34016527 -563.09912109 231.2722168 C-559.37424442 228.37800511 -555.70402463 225.4277305 -552.06103516 222.43115234 C-542.95292942 214.94407661 -533.56778292 207.86592812 -524.10107422 200.84033203 C-521.91152359 199.20794183 -519.73376683 197.56156776 -517.56152344 195.90625 C-509.02908765 189.41406427 -500.29827142 183.284373 -491.42089844 177.2734375 C-487.77832382 174.80176994 -484.18650536 172.26936977 -480.61230469 169.70019531 C-468.96127677 161.34013119 -456.8631762 153.68954959 -444.72167969 146.06640625 C-443.66239258 145.40060547 -442.60310547 144.73480469 -441.51171875 144.04882812 C-415.85769398 127.97282975 -389.58536492 113.02604177 -362.72167969 99.06640625 C-361.72615082 98.54883759 -361.72615082 98.54883759 -360.71051025 98.02081299 C-287.31610387 59.94251476 -208.45817446 30.20390181 0 0 Z M-43.72167969 108.06640625 C-44.33914063 108.65808594 -44.95660156 109.24976563 -45.59277344 109.859375 C-55.49399575 119.84576911 -57.02656246 134.06335281 -57.03637695 147.43505859 C-56.78935234 165.34068849 -49.51017009 179.60304696 -36.72167969 192.06640625 C-24.92796529 203.01149544 -9.03686729 208.82095052 6.99707031 208.34375 C23.79739742 206.92372235 39.54316862 199.28234564 50.55957031 186.3984375 C61.50245425 171.92361528 65.7615421 157.06371342 64.27832031 139.06640625 C62.12923651 123.79000219 53.64444973 109.60514471 41.78613281 99.79296875 C14.21240057 80.80918425 -20.80604807 83.01003622 -43.72167969 108.06640625 Z " fill="#FEA944" transform="translate(1405.7216796875,226.93359375)"/>
<path d="" fill="#FFE21C" transform="translate(0,0)"/>
</svg>
