<?xml version="1.0" encoding="UTF-8"?>
<svg version="1.1" xmlns="http://www.w3.org/2000/svg" width="2360" height="1640">
<path d="M0 0 C80.13023181 32.22259568 168.60950818 37.95721024 262.80345154 42.64155579 C355.39657111 47.22842335 447.87287411 52.69405078 724.48558044 109.55610657 C727.16810025 110.45666353 729.85871479 111.32199442 732.55735779 112.17280579 C755.27469075 119.39853322 777.65063711 128.39323619 799.22288513 138.52485657 C801.31765528 139.50158566 803.42328077 140.44968725 805.53392029 141.39155579 C833.58433705 154.04252196 860.64723897 170.89488597 884.35813904 190.52046204 C885.22438904 191.21397766 886.09063904 191.90749329 886.98313904 192.62202454 C904.89919018 207.02612247 922.29465115 223.30539101 936.35813904 241.52046204 C937.35147759 242.72953597 938.34924296 243.93498045 939.35032654 245.13764954 C991.94919094 308.46489421 1025.02366815 388.50224286 1059.10813904 540.45796204 C1059.20928009 541.22415863 1059.31042114 541.99035522 1059.41462708 542.7797699 C1062.67161627 567.73321968 1063.76799053 592.62705917 1063.73313904 617.77046204 C1063.73304714 618.48982185 1063.73295525 619.20918167 1063.73286057 619.95034027 C1063.72900955 643.34238483 1062.95432516 666.36801194 1059.35813904 689.52046204 C1059.06930847 691.42867737 1059.06930847 691.42867737 1058.77464294 693.3754425 C1051.79750283 738.33340551 1038.58541209 782.73111098 1018.35813904 823.52046204 C1017.5648822 825.12558655 1017.5648822 825.12558655 1016.75559998 826.76313782 C1009.72912788 840.87312192 1002.11686733 854.41511807 993.35813904 867.52046204 C992.89697693 868.21429993 992.43581482 868.90813782 991.9606781 869.6230011 C973.17621037 897.76637326 951.5258736 923.56328589 927.57762146 947.43135071 C925.65888399 949.34468397 923.7456115 951.26336708 921.83274841 953.18257141 C915.84553067 959.17332612 909.85693448 965.0789146 903.35813904 970.52046204 C902.3479922 971.39687785 901.33882894 972.27442901 900.33079529 973.15327454 C875.56435704 994.36265387 848.60016247 1013.23750044 820.35813904 1029.52046204 C819.48125427 1030.0265802 818.60436951 1030.53269836 817.70091248 1031.05415344 C750.1199128 1069.87414773 677.05955668 1095.10980137 599.54563904 1103.77046204 C598.80122559 1103.85372742 598.05681213 1103.9369928 597.2898407 1104.02278137 C577.98606557 1106.15247651 558.83464348 1106.76097257 539.42063904 1106.77046204 C538.17692535 1106.77113678 536.93321167 1106.77181152 535.65180969 1106.77250671 C516.02461187 1106.75563118 496.82910302 1106.10235963 477.35813904 1103.52046204 C476.03300463 1103.35201344 474.70780788 1103.18405472 473.3825531 1103.01655579 C428.71307566 1097.2939597 384.95823132 1085.81717474 343.35813904 1068.52046204 C342.22811462 1068.0562384 341.09809021 1067.59201477 339.93382263 1067.11372375 C310.01064015 1054.75334628 281.01637962 1040.35841853 253.35813904 1023.52046204 C251.30785813 1022.28785856 249.25706595 1021.05610518 247.20579529 1019.82514954 C237.43626397 1013.94279635 227.74704309 1007.99688973 218.35813904 1001.52046204 C217.09933927 1000.66192735 215.84020012 999.80389015 214.58079529 998.94624329 C183.75432088 977.90777767 154.33743636 955.09364246 125.94847107 930.87251282 C124.31845139 929.48672083 122.68065707 928.11055003 121.04173279 926.73530579 C113.59884637 920.45993096 106.43840101 913.93561555 99.39427185 907.21504211 C98.72492615 906.57719788 98.05558044 905.93935364 97.36595154 905.28218079 C96.78474548 904.72490295 96.20353943 904.16762512 95.60472107 903.59346008 C94.33362214 902.42057365 93.05187492 901.25834919 91.737854 900.13375854 C85.40784629 894.71517838 79.54765652 888.85547818 73.66673279 882.96186829 C72.55164893 881.84745985 71.43641681 880.73319974 70.32104492 879.61907959 C67.99560142 877.29510183 65.67195393 874.9693474 63.34959412 872.64228821 C60.39226001 869.67925753 57.43045776 866.72074034 54.4672842 863.76355076 C52.16703306 861.46693571 49.86919673 859.16791638 47.57205391 856.86819267 C46.48168607 855.77716397 45.39059224 854.68686027 44.29871941 853.59733772 C38.95074797 848.25835746 33.65962924 842.9085043 28.75387573 837.15431213 C26.57246186 834.60074792 24.27216469 832.16539948 21.98313904 829.70796204 C17.63489242 825.00671018 13.54542685 820.14796869 9.53001404 815.15718079 C7.42057555 812.59626175 5.22926255 810.14922749 2.98313904 807.70796204 C-0.99797952 803.33424182 -4.65852416 798.77717426 -8.27857971 794.1061554 C-11.25526236 790.26896136 -14.29369744 786.49374862 -17.38575745 782.74897766 C-24.35088152 774.30033742 -30.81618542 765.55846918 -37.14576721 756.62641907 C-38.53094829 754.67658682 -39.92707967 752.73536087 -41.32936096 750.79780579 C-81.57911669 695.10617346 -113.87238537 633.32658871 -136.64186096 568.52046204 C-137.29251526 566.69104065 -137.29251526 566.69104065 -137.95631409 564.82466125 C-161.28189927 499.03905283 -173.65998857 429.12017426 -177.64186096 359.52046204 C-177.68422882 358.82701691 -177.72659668 358.13357178 -177.77024841 357.41911316 C-178.76395904 340.89659863 -178.84361554 324.38073365 -178.82936096 307.83296204 C-178.82909409 307.13768276 -178.82882721 306.44240349 -178.82855225 305.72605515 C-178.81822547 284.26673629 -178.63679871 262.90512355 -176.64186096 241.52046204 C-176.57634033 240.80918152 -176.5108197 240.097901 -176.4433136 239.36506653 C-174.48516433 218.25884662 -171.79747101 197.3186572 -167.64186096 176.52046204 C-167.40660706 175.33919739 -167.17135315 174.15793274 -166.92897034 172.94087219 C-154.67521435 113.02194534 -128.31663375 58.24551731 -91.64186096 9.52046204 C-90.65186096 10.51046204 -90.65186096 10.51046204 -89.64186096 11.52046204 C-89.21518127 11.03577454 -88.78850159 10.55108704 -88.34889221 10.05171204 C-62.40346429 -17.76606636 -31.64250085 -12.79258403 0 0 Z M-81.76686096 116.70796204 C-101.66568214 140.10415178 -105.70647918 169.68504409 -103.42359924 199.3573761 C-102.80766786 205.13998677 -101.81138275 210.82636746 -100.64186096 216.52046204 C-100.48620667 217.29953918 -100.33055237 218.07861633 -100.17018127 218.88130188 C-89.94409479 268.40944333 -62.13979874 313.3440124 -28.64186096 350.52046204 C-27.56678284 351.73282532 -27.56678284 351.73282532 -26.46998596 352.96968079 C-22.00529667 357.98121961 -17.43613688 362.82515053 -12.64186096 367.52046204 C-9.82817622 370.31954288 -7.03527849 373.13745784 -4.25904846 375.97358704 C2.11986735 382.46310022 8.48645758 388.72981989 15.64720154 394.36811829 C18.08168987 396.30097574 20.43648714 398.30321194 22.78147888 400.3429718 C58.75365925 431.48581176 101.93365814 455.56176251 145.35813904 474.52046204 C146.40985291 474.98017395 147.46156677 475.43988586 148.54515076 475.91352844 C211.67115638 503.20262672 281.25089637 519.55808094 349.85813904 507.14546204 C351.51232849 506.85022644 351.51232849 506.85022644 353.19993591 506.54902649 C361.34478769 504.97978338 369.94689455 503.10392099 376.35813904 497.52046204 C376.35813904 496.86046204 376.35813904 496.20046204 376.35813904 495.52046204 C377.01813904 495.52046204 377.67813904 495.52046204 378.35813904 495.52046204 C384.29266058 485.20128284 388.96364372 476.42137984 385.75267029 464.21968079 C381.63689525 454.26839372 371.2275694 449.13559197 362.44554138 443.94355774 C354.08707536 438.91626469 346.72320445 432.88633287 339.35813904 426.52046204 C338.46997498 425.76249329 337.58181091 425.00452454 336.66673279 424.22358704 C326.90696845 415.66972438 317.39625682 406.38257465 309.01829529 396.46186829 C306.90111442 393.98601207 304.69032075 391.60384935 302.48313904 389.20796204 C298.41273848 384.74523371 294.55636994 380.15788203 290.76438904 375.45796204 C288.06035021 372.15692762 285.27699339 368.93284019 282.48313904 365.70796204 C277.95229434 360.46440828 273.61262606 355.10330167 269.36253357 349.63056946 C266.43227324 345.86407171 263.4299373 342.17367322 260.35813904 338.52046204 C256.33948243 333.73483784 252.44990964 328.86654648 248.60423279 323.94233704 C245.21976525 319.60983937 241.79909451 315.30820865 238.35813904 311.02046204 C231.7356595 302.76181541 225.19824044 294.43757983 218.68235779 286.09468079 C213.2609037 279.16218451 207.76239385 272.29965038 202.19456482 265.48408508 C198.68991742 261.18604031 195.25689509 256.8399474 191.85813904 252.45796204 C186.97176327 246.17943352 181.80250914 240.17565015 176.56126404 234.19233704 C173.53284371 230.73388831 170.56413811 227.22832617 167.60813904 223.70796204 C163.67756354 219.03309806 159.63274467 214.47933276 155.51829529 209.96577454 C153.30943721 207.46533121 151.24112461 204.8862136 149.17063904 202.27046204 C144.94438291 197.03406384 140.31268298 192.3264707 135.49412537 187.64253235 C132.50534178 184.72602011 129.65332215 181.7613734 126.92454529 178.59858704 C123.26948225 174.36402555 119.38624685 170.40062516 115.42063904 166.45796204 C114.75612732 165.78958313 114.0916156 165.12120422 113.40696716 164.43257141 C109.46310116 160.49635597 105.40958855 156.74774895 101.19090271 153.10810852 C98.73991098 150.98491693 96.36394519 148.78429203 93.98313904 146.58296204 C88.93824075 141.99417784 83.77355043 137.66436241 78.35813904 133.52046204 C77.8330072 133.11746887 77.30787537 132.71447571 76.76683044 132.29927063 C32.5019379 98.5258562 -35.9287462 68.02165374 -81.76686096 116.70796204 Z M230.04563904 128.95796204 C222.78489685 137.96852298 220.40586898 148.10858049 221.35813904 159.52046204 C223.84288706 175.76167863 232.36953874 190.08861447 241.35813904 203.52046204 C242.00806824 204.49450989 242.00806824 204.49450989 242.67112732 205.48823547 C249.96124184 216.35713348 257.64140059 226.95227289 265.35813904 237.52046204 C265.91372498 238.28229797 266.46931091 239.04413391 267.04173279 239.82905579 C274.42155155 249.93582836 281.92494594 259.94190347 289.52830505 269.88154602 C293.59118028 275.19324574 297.61526128 280.53102547 301.60813904 285.89546204 C305.95403835 291.72318416 310.43460494 297.42715069 314.99754333 303.08613586 C318.61272104 307.57236933 322.1483472 312.11226797 325.64866638 316.68843079 C328.60599173 320.55163529 331.59711363 324.38648528 334.60813904 328.20796204 C340.62442653 335.84624578 346.59058125 343.52311332 352.55540466 351.20161438 C354.33674757 353.49294631 356.12047526 355.78239977 357.90501404 358.07124329 C365.23657323 367.47763779 372.51342648 376.92362488 379.74485779 386.40718079 C381.37365309 388.54078432 383.005958 390.67165588 384.63938904 392.80171204 C391.40680247 401.62872928 398.1346127 410.4835841 404.77952576 419.40327454 C405.86789016 420.86295535 406.95817639 422.32120452 408.05003357 423.77827454 C409.82419868 426.1471291 411.59171621 428.52083022 413.35813904 430.89546204 C413.87883972 431.58881653 414.39954041 432.28217102 414.9360199 432.99653625 C419.93819406 439.74753666 424.55028268 446.75132156 429.19114685 453.75239563 C432.19854019 458.28837632 435.23976594 462.80081417 438.28782654 467.30952454 C480.01554616 529.15401001 480.01554616 529.15401001 488.35813904 564.52046204 C406.47311468 595.64187316 298.0533552 578.84072041 31.25462341 536.21406555 C29.96598892 535.97227066 28.67735443 535.73047577 27.34967041 535.48135376 C24.96907155 535.03384176 22.58889737 534.5840615 20.20925903 534.13146973 C4.13579881 531.10470158 -12.70342077 528.37624401 -27.39186096 537.14546204 C-33.98080278 541.84518514 -38.264354 548.53092164 -39.64186096 556.52046204 C-42.95096703 594.36460236 -6.64235501 639.71553992 16.26048279 667.02436829 C17.29882263 668.25993469 17.29882263 668.25993469 18.35813904 669.52046204 C19.79599361 671.31184416 21.23348462 673.10351816 22.67063904 674.89546204 C26.58401999 679.68609826 30.70364366 684.2446017 34.93357849 688.75434875 C37.56366666 691.55971636 40.12806254 694.40140246 42.63548279 697.31733704 C46.81348588 702.11551246 51.28777037 706.59657646 55.79563904 711.08296204 C56.60323669 711.89442688 57.41083435 712.70589172 58.24290466 713.54194641 C63.11884134 718.41002501 68.11924125 723.04736036 73.35813904 727.52046204 C74.48776747 728.50531138 75.61670162 729.49095778 76.74485779 730.47749329 C100.32570532 750.93656818 126.16934175 768.23728089 153.35813904 783.52046204 C154.00460388 783.88768372 154.65106873 784.2549054 155.31712341 784.633255 C196.49499666 807.92435281 243.57718241 819.17912434 290.35813904 823.52046204 C291.513703 823.62850159 291.513703 823.62850159 292.69261169 823.73872375 C384.6216429 831.83053902 474.34767496 801.8581554 557.93235779 767.03120422 C574.97662362 759.92942679 592.03682993 752.923735 609.35813904 746.52046204 C610.26966736 746.1814386 611.18119568 745.84241516 612.12034607 745.49311829 C640.27499951 735.15122825 669.82652892 730.32898511 699.35813904 737.52046204 C700.26773376 737.73025696 701.17732849 737.94005188 702.11448669 738.15620422 C720.08546582 742.3322509 737.4959209 748.00600365 754.94407654 753.94624329 C755.95801231 754.29119339 755.95801231 754.29119339 756.99243164 754.64311218 C760.48874123 755.84347915 763.94012462 757.11220076 767.35813904 758.52046204 C763.15037672 763.18242273 758.39039764 766.26782162 753.04563904 769.52046204 C752.12629578 770.08297668 751.20695251 770.64549133 750.25975037 771.22505188 C694.41755804 805.02637553 631.91600106 823.64208925 570.22557068 843.64271545 C563.46579587 845.83448013 556.70969335 848.03722159 549.95579529 850.24702454 C532.62238528 855.91503972 515.27325918 861.51777054 497.86479187 866.9511261 C486.95983147 870.35721255 476.10362574 873.88798705 465.27830505 877.54096985 C457.79583313 880.06057271 450.29505893 882.51065042 442.77220154 884.90718079 C390.35327645 899.65567182 390.35327645 899.65567182 351.49095154 935.21968079 C345.35326428 947.68553526 344.1123116 961.17505542 348.48313904 974.33296204 C360.95909715 1007.37178741 391.56641207 1026.36245692 422.35813904 1040.52046204 C490.98740695 1069.69463739 568.52420806 1060.44508073 638.35813904 1040.52046204 C639.62125916 1040.16113586 640.88437927 1039.80180969 642.18577576 1039.43159485 C685.95700599 1026.89366966 728.81213078 1010.44402793 769.30296326 989.57466125 C771.53478079 988.42985392 773.77654055 987.30583218 776.01829529 986.18061829 C791.29042303 978.43202922 805.81704584 969.53867261 820.35813904 960.52046204 C821.27434021 959.95649719 822.19054138 959.39253235 823.13450623 958.81147766 C835.53923955 951.17410998 847.52914609 943.02051804 859.35813904 934.52046204 C860.17347107 933.93474426 860.9888031 933.34902649 861.82884216 932.74555969 C870.3514261 926.59809427 878.7529355 920.32145148 886.92063904 913.70796204 C887.52682068 913.21739319 888.13300232 912.72682434 888.7575531 912.22138977 C897.97886314 904.65463904 906.57130269 896.47199313 914.98191833 888.02705383 C916.55086264 886.45272049 918.12512462 884.88384614 919.69993591 883.31538391 C925.13033429 877.88883051 930.382814 872.37115844 935.35813904 866.52046204 C936.32748553 865.42753225 937.29876389 864.33631205 938.27220154 863.24702454 C946.03066027 854.44407755 952.4382711 846.72566926 951.83470154 834.35249329 C950.80317595 828.22252566 947.70967247 824.20342238 942.79563904 820.52046204 C937.64751973 817.64958265 932.07629244 817.48404673 926.35813904 818.52046204 C920.48221619 820.8246187 916.27726016 824.04963832 911.95188904 828.57124329 C911.38288879 829.14827499 910.81388855 829.7253067 910.22764587 830.31982422 C908.42798205 832.14820378 906.64257168 833.98972587 904.85813904 835.83296204 C902.49782856 838.24992765 900.1320967 840.66152536 897.76438904 843.07124329 C897.1992157 843.64760025 896.63404236 844.22395721 896.05174255 844.81777954 C891.99298913 848.93533758 887.79967646 852.81638011 883.35813904 856.52046204 C882.33593417 857.40820814 881.31503406 858.29745955 880.29563904 859.18843079 C873.91043844 864.66509885 867.38382921 869.8539255 860.6157074 874.84980774 C857.19200639 877.3806133 853.80759886 879.938298 850.49876404 882.61811829 C835.54964376 894.67709965 819.43255327 905.04335455 803.35813904 915.52046204 C802.36475525 916.16886047 801.37137146 916.81725891 800.34788513 917.48530579 C729.98324723 963.20714141 647.05515392 996.29739498 547.35813904 1010.52046204 C546.01259949 1010.66185608 546.01259949 1010.66185608 544.63987732 1010.80610657 C497.18130913 1015.31100377 446.29578638 1007.92198051 407.91282654 977.67280579 C401.54317149 972.30632271 396.27427153 967.47355066 393.35813904 959.52046204 C395.3936137 953.39077548 402.03773721 950.72207554 407.41551208 947.93721008 C418.15636801 942.79110348 429.19652142 938.91504454 440.48313904 935.14546204 C442.45110528 934.48140414 444.41895888 933.81701232 446.38670349 933.15229797 C458.21043104 929.17236983 470.0719625 925.35112247 482.0063324 921.71650696 C490.56805389 919.10364403 499.06319256 916.31537966 507.54563904 913.45796204 C521.44058861 908.78097176 535.3896883 904.28526616 549.35813904 899.83296204 C572.5451072 892.43862217 595.69526311 884.93675928 618.81663513 877.33979797 C622.33666784 876.18332562 625.85768819 875.02998296 629.38011169 873.8808136 C737.33293299 842.129614 737.33293299 842.129614 819.27220154 771.96968079 C823.13930727 763.24782721 824.19515501 753.32867429 821.29563904 744.16108704 C812.83151023 726.03681122 794.77945112 718.48015743 777.02220154 711.90718079 C753.77459919 703.51788991 730.45371752 696.07680621 706.35813904 690.52046204 C705.49752869 690.31421204 704.63691833 690.10796204 703.75022888 689.89546204 C681.60309412 684.75002479 654.46123861 685.30577677 632.35813904 690.52046204 C631.54393494 690.69786926 630.72973083 690.87527649 629.89085388 691.05805969 C596.61688036 698.38392613 564.97293179 712.97408997 533.66673279 726.06343079 C469.95245695 752.66693543 402.09142238 776.11415799 332.35813904 777.52046204 C331.59340271 777.5409259 330.82866638 777.56138977 330.04075623 777.58247375 C258.94874313 779.30358892 191.2467273 758.04041639 134.11790466 715.81977844 C132.2407913 714.43381877 130.35405853 713.0615192 128.46751404 711.68843079 C116.66304095 703.03210325 105.31308704 693.81039212 95.11595154 683.28218079 C93.24819555 681.41027422 91.29909338 679.68337044 89.29563904 677.95796204 C83.49310217 672.94874076 78.28740973 667.53929121 73.29173279 661.73139954 C71.11217923 659.23922314 68.86040624 656.82207535 66.60813904 654.39546204 C61.31263924 648.58645922 56.47995736 642.47579991 51.69309998 636.24507141 C50.44405058 634.63144944 49.17143821 633.03614417 47.89720154 631.44233704 C35.49280739 615.78630559 24.29557584 598.39533565 15.35813904 580.52046204 C17.21668518 580.94875305 17.21668518 580.94875305 19.11277771 581.38569641 C36.68001452 585.35675797 54.37593765 588.49325232 72.11534882 591.57629013 C74.70716392 592.02681095 77.29874467 592.47866249 79.89030457 592.9306488 C170.31480503 608.68360815 261.40048226 624.39483558 353.35813904 626.52046204 C354.25323181 626.54382629 355.14832458 626.56719055 356.07054138 626.59126282 C447.87648863 629.42630351 447.87648863 629.42630351 529.88572693 596.12617493 C536.47482087 588.53300473 538.8111532 581.34803095 538.69017029 571.43843079 C537.38054497 555.98485203 530.88386996 540.97535322 525.50022888 526.58784485 C524.41903837 523.68402323 523.36381783 520.7721012 522.31517029 517.85639954 C515.13265144 498.10581238 504.83981276 481.06579861 493.35813904 463.52046204 C492.67533875 462.47245422 492.67533875 462.47245422 491.97874451 461.40327454 C480.66142099 444.06685086 468.55863207 427.24220762 456.35813904 410.52046204 C455.80690369 409.76442688 455.25566833 409.00839172 454.68772888 408.22944641 C447.30191178 398.11469026 439.79147645 388.10150619 432.18357849 378.15278625 C428.16862706 372.90242769 424.18446101 367.63132559 420.23313904 362.33296204 C414.3107232 354.40466365 408.23374411 346.59995012 402.1403656 338.8026886 C399.20709995 335.0465013 396.28304533 331.28315967 393.35813904 327.52046204 C392.19151745 326.02042697 391.02485077 324.52042699 389.85813904 323.02046204 C382.85813903 314.02046203 382.85813903 314.02046203 381.10740662 311.76948547 C379.94322645 310.27270561 378.77900134 308.7759607 377.61473083 307.2792511 C374.6596473 303.48027146 371.7053989 299.68064739 368.75267029 295.87983704 C363.46991808 289.08116463 358.18308997 282.28615494 352.85813904 275.52046204 C351.50962302 273.80509593 350.16149665 272.08942504 348.81370544 270.37348938 C347.79295733 269.07401299 346.77175975 267.77488959 345.75022888 266.47602844 C337.90163239 256.48587664 330.24519368 246.37712023 322.74095154 236.12593079 C319.56647865 231.79207731 316.34337994 227.49653718 313.10813904 223.20796204 C308.15276259 216.62680592 303.33479213 209.95801135 298.57591248 203.23384094 C297.34694547 201.50471295 296.10808448 199.7831207 294.86595154 198.06343079 C272.57290269 167.164753 272.57290269 167.164753 269.35813904 157.52046204 C319.6107264 150.92995878 368.13258367 173.76465564 407.23313904 203.58296204 C409.28754751 205.21286264 411.32917763 206.85899108 413.35813904 208.52046204 C414.16251404 209.17256653 414.16251404 209.17256653 414.98313904 209.83784485 C423.88034684 217.10286812 432.09513075 225.05232947 440.23313904 233.14546204 C440.71941772 233.62647369 441.20569641 234.10748535 441.70671082 234.60307312 C448.38779157 241.22809459 454.49824015 248.15817845 460.35813904 255.52046204 C461.23411064 256.57067968 462.11444446 257.61730665 463.00267029 258.65718079 C488.45874799 288.60820554 509.74884492 322.35924779 528.77171326 356.66059875 C529.81669324 358.54439308 530.86511342 360.42628378 531.91722107 362.30610657 C539.05675722 375.06482699 545.63792765 388.00055768 551.82298279 401.24702454 C553.19446688 404.17146136 554.57970199 407.08895373 555.97149658 410.00376892 C565.33327026 429.6162607 574.0174736 449.45472423 582.35813904 469.52046204 C582.99413632 471.04881166 583.6302054 472.5771314 584.26634216 474.10542297 C585.56697767 477.23055852 586.8673249 480.3558138 588.16746521 483.4811554 C617.1148975 553.05802936 638.96017626 594.30845582 708.49339294 627.26289368 C714.54391539 630.14060583 720.53382328 633.11814092 726.50340271 636.15986633 C737.95741932 641.98443641 749.54110026 647.39793711 761.29563904 652.58296204 C762.01788666 652.90260925 762.74013428 653.22225647 763.48426819 653.55158997 C786.28040698 664.44953812 786.28040698 664.44953812 810.67063904 662.89546204 C819.43874398 658.84864437 823.78994344 653.45569563 827.35813904 644.52046204 C831.20009897 632.11919898 826.32025051 618.8139556 821.23313904 607.52046204 C820.8113739 606.56679749 820.38960876 605.61313293 819.95506287 604.63056946 C814.0336879 591.37186105 807.73666099 578.28227885 801.50480652 565.16772461 C798.15944333 558.11902529 794.87834444 551.04181365 791.60813904 543.95796204 C785.82934781 531.46041789 779.87149202 519.05350014 773.87522888 506.65913391 C759.25589305 476.4135302 744.97898865 446.009378 731.19291687 415.37495422 C730.40630602 413.62746689 729.61835028 411.88058513 728.83030701 410.13374329 C725.597108 402.95711229 722.40669935 395.76250745 719.24876404 388.55244446 C718.62460487 387.12841026 717.99952656 385.70477873 717.37376404 384.28144836 C708.48315512 364.05905912 699.86176673 343.77193907 692.10813904 323.08296204 C691.65463577 321.87756271 691.65463577 321.87756271 691.19197083 320.64781189 C685.51522106 305.50415352 680.06890155 290.12416768 676.48313904 274.33296204 C676.17255554 272.97014099 676.17255554 272.97014099 675.85569763 271.57978821 C674.02326307 262.97067471 672.51984451 253.03534561 675.35813904 244.52046204 C680.8239147 240.82265936 688.2874822 241.84123959 694.48265076 242.87495422 C730.0612662 250.10516878 762.88366624 272.32236782 787.85813904 298.08296204 C790.01486918 300.75316208 790.01486918 300.75316208 792.35813904 300.52046204 C792.57341248 301.06573547 792.78868591 301.61100891 793.01048279 302.17280579 C794.81950656 305.32417764 797.31529082 307.59893341 799.92063904 310.08296204 C805.53046046 315.56810216 810.49381397 321.36007734 815.35813904 327.52046204 C816.24261915 328.59392507 817.129451 329.66545356 818.01829529 330.73530579 C879.19468336 404.85769099 910.50691877 498.26554405 945.90501404 735.65327454 C945.94942123 736.33548065 945.99382843 737.01768677 946.0395813 737.7205658 C946.24853544 740.96991525 946.44541349 744.21900682 946.62498474 747.47016907 C947.29619284 763.05067227 947.29619284 763.05067227 954.35813904 776.52046204 C957.37725568 778.82074138 958.56615758 779.52046204 962.35813904 779.52046204 C962.35813904 780.18046204 962.35813904 780.84046204 962.35813904 781.52046204 C966.31813904 781.52046204 970.27813904 781.52046204 974.35813904 781.52046204 C974.35813904 780.86046204 974.35813904 780.20046204 974.35813904 779.52046204 C975.67813904 779.52046204 976.99813904 779.52046204 978.35813904 779.52046204 C978.35813904 778.86046204 978.35813904 778.20046204 978.35813904 777.52046204 C979.67813904 777.19046204 980.99813904 776.86046204 982.35813904 776.52046204 C982.35813904 775.86046204 982.35813904 775.20046204 982.35813904 774.52046204 C983.01813904 774.52046204 983.67813904 774.52046204 984.35813904 774.52046204 C985.01171182 773.29539306 985.65562137 772.06516688 986.29563904 770.83296204 C986.83511169 769.80622375 986.83511169 769.80622375 987.38548279 768.75874329 C989.0883515 764.8400936 989.48332519 761.0005966 989.48753357 756.75971985 C989.49062027 755.83877533 989.49370697 754.91783081 989.49688721 753.96897888 C989.49492844 752.98049957 989.49296967 751.99202026 989.49095154 750.97358704 C989.49327034 749.42162125 989.49327034 749.42162125 989.49563599 747.83830261 C989.49810014 744.4823138 989.49186972 741.12643957 989.48313904 737.77046204 C989.48059113 736.6247876 989.47804321 735.47911316 989.47541809 734.29872131 C989.224292 638.58020665 972.14370948 537.56009701 824.35813904 267.52046204 C823.51122498 266.63100891 822.66431091 265.74155579 821.79173279 264.82514954 C817.15173683 260.06064563 812.2122079 255.83927429 807.01829529 251.68843079 C804.68753582 249.78891316 802.49224313 247.82091243 800.29563904 245.77046204 C788.85603312 235.51779197 775.73079028 227.01615019 762.35813904 219.52046204 C761.66204529 219.12262512 760.96595154 218.72478821 760.24876404 218.31489563 C733.05627538 202.86845316 697.25980989 188.67925485 665.60813904 197.14546204 C651.55774701 202.02008784 640.15822714 210.05405806 633.35813904 223.52046204 C628.51654567 233.59097623 626.81867493 243.3165765 626.92063904 254.45796204 C626.92893738 255.64236877 626.93723572 256.82677551 626.94578552 258.04707336 C627.14616903 268.60321942 628.6380692 278.34378458 631.35813904 288.52046204 C631.70425232 289.84932434 631.70425232 289.84932434 632.05735779 291.20503235 C646.17608421 344.59846998 670.38939837 395.48764134 693.35813904 445.52046204 C693.88794373 446.6753009 694.41774841 447.83013977 694.96360779 449.01997375 C698.41134186 456.52810159 701.88104883 464.02589307 705.35813904 471.52046204 C705.89761169 472.68577454 706.43708435 473.85108704 706.99290466 475.05171204 C713.82073749 489.79888427 720.76037453 504.48429056 727.87043762 519.09757996 C732.88939671 529.41728411 737.76566307 539.79407224 742.57176208 550.21504211 C746.90919926 559.60223268 751.37459823 568.92270708 755.87693787 578.23164368 C759.77593211 586.29551378 763.61066329 594.38503287 767.35813904 602.52046204 C763.01361306 601.16455838 759.01205419 599.49044074 754.92454529 597.49311829 C754.30615784 597.19235382 753.68777039 596.89158936 753.05064392 596.58171082 C751.00545554 595.58587734 748.96295378 594.58467428 746.92063904 593.58296204 C744.72822538 592.51116742 742.53542649 591.44016354 740.34262085 590.36917114 C738.79474052 589.61298376 737.24710755 588.85628984 735.69970703 588.09912109 C730.64677839 585.62894844 725.58294798 583.18267406 720.51062012 580.75259399 C717.00078001 579.07051252 713.49426276 577.38156769 709.98799133 575.69206238 C708.29307207 574.87733179 706.59674495 574.06552279 704.89894104 573.25682068 C656.59298155 550.23203795 643.0104475 493.17550666 623.67921448 446.66026306 C611.80829023 417.69950392 611.80829023 417.69950392 598.36204529 389.45796204 C596.33106424 385.51734464 594.44270985 381.51366777 592.55076599 377.50483704 C582.18909106 355.56807328 570.81045884 334.33875278 558.35813904 313.52046204 C557.78450623 312.55366516 557.21087341 311.58686829 556.61985779 310.59077454 C541.27573506 284.7516875 524.21789662 259.92670221 505.35813904 236.52046204 C504.61177185 235.59104797 503.86540466 234.66163391 503.09642029 233.70405579 C500.87056402 230.95869985 498.62149368 228.23498371 496.35813904 225.52046204 C495.92984802 225.00580383 495.50155701 224.49114563 495.06028748 223.96089172 C479.13725034 204.89649773 461.97132599 186.8320623 442.35813904 171.52046204 C441.73713318 171.03222961 441.11612732 170.54399719 440.4763031 170.04096985 C404.49931511 141.81867836 362.98571786 118.87016608 317.35813904 111.52046204 C316.10645935 111.29874329 314.85477966 111.07702454 313.56517029 110.84858704 C285.72640465 106.57901469 250.50236538 106.67835909 230.04563904 128.95796204 Z " fill="#2C8213" transform="translate(580.6418609619141,273.4795379638672)"/>
<path d="M0 0 C1.31581055 0.30550781 1.31581055 0.30550781 2.65820312 0.6171875 C20.7155235 4.99963829 38.97938604 12.60194967 53 25 C53.95132813 25.83015625 54.90265625 26.6603125 55.8828125 27.515625 C67.33020324 38.18322073 74.72462299 51.16877706 75.3984375 67.01074219 C75.68481445 82.96909761 70.76213473 96.25745057 63 110 C62.43152344 111.010625 61.86304687 112.02125 61.27734375 113.0625 C57.62135869 119.14716544 53.27403383 124.27262722 48.4140625 129.43359375 C46.32520227 131.65427526 44.34048826 133.92103104 42.375 136.25 C38.88459204 140.23903767 35.08885363 143.63460862 31 147 C30.21858643 147.6499292 30.21858643 147.6499292 29.42138672 148.31298828 C15.56013315 159.80626147 0.95734891 169.648301 -15 178 C-15.84030762 178.43989258 -16.68061523 178.87978516 -17.54638672 179.33300781 C-50.33836097 196.25981094 -85.97869394 204.4994439 -122.8125 204.3125 C-123.60880829 204.31001251 -124.40511658 204.30752502 -125.22555542 204.30496216 C-183.60469784 204.02610743 -240.9785373 187.67403701 -294 164 C-295.03624512 163.54093262 -296.07249023 163.08186523 -297.14013672 162.60888672 C-309.92755623 156.92669486 -322.47828137 150.91321677 -334.76611328 144.21630859 C-336.97256002 143.01494055 -339.18696078 141.82932023 -341.40234375 140.64453125 C-361.98414237 129.53254955 -381.92223915 117.07487221 -399 101 C-400.15242188 99.96166016 -400.15242188 99.96166016 -401.328125 98.90234375 C-406.87620008 93.7234751 -408.92569923 89.52505967 -409.3125 81.875 C-408.86560043 76.33344538 -407.19447967 74.22291966 -403.375 70.3125 C-400.92745423 68.37726725 -398.90482872 67.57320493 -395.85546875 66.95947266 C-395.05979492 66.79690979 -394.26412109 66.63434692 -393.44433594 66.46685791 C-392.63770508 66.3127948 -391.83107422 66.15873169 -391 66 C-390.26813477 65.85963318 -389.53626953 65.71926636 -388.78222656 65.574646 C-386.50273133 65.14927137 -384.22076571 64.74056742 -381.9375 64.3359375 C-380.17404755 64.01958761 -378.41062094 63.70309365 -376.6472168 63.38647461 C-375.72774261 63.22194794 -374.80826843 63.05742126 -373.8609314 62.88790894 C-319.88023215 53.21022739 -266.88387592 41.3787365 -213.98341942 26.90294647 C-211.69722266 26.27749795 -209.41081114 25.65284016 -207.12434387 25.02838135 C-205.58492107 24.60782232 -204.04550764 24.18722898 -202.50610352 23.76660156 C-201.74109937 23.55757328 -200.97609522 23.348545 -200.18790913 23.13318253 C-196.43404236 22.10664251 -192.68117387 21.07669008 -188.9303894 20.03894043 C-172.76819777 15.56726318 -156.58759642 11.3195224 -140.234375 7.59765625 C-139.51486979 7.43383202 -138.79536457 7.27000778 -138.05405617 7.10121918 C-124.43857719 4.01466636 -110.78420607 1.22653008 -97 -1 C-95.53892822 -1.24556641 -95.53892822 -1.24556641 -94.04833984 -1.49609375 C-63.88466137 -6.39269626 -29.82951502 -7.03915722 0 0 Z M21 65 C18.14962536 68.31783608 16.03606157 71.63996661 14 75.5 C3.6377796 93.50103672 -13.46748998 104.77361166 -31 115 C-32.1130249 115.66032227 -32.1130249 115.66032227 -33.24853516 116.33398438 C-44.72465851 123.12374915 -56.45872142 128.47545043 -69 133 C-70.03769531 133.38285156 -71.07539062 133.76570313 -72.14453125 134.16015625 C-84.054344 137.99915136 -97.64638755 137.18498307 -109 132 C-111.77083177 130.07021072 -113.47727293 128.04545414 -115 125 C-115.39477908 119.17700853 -115.05571272 115.15651522 -112 110 C-110.03490812 108.3296719 -107.98862965 106.86705747 -105.875 105.390625 C-102.7765446 103.09260391 -101.30687457 100.90339922 -100.69140625 97.0859375 C-100.45572682 93.27221581 -100.73219232 91.42479838 -102.8125 88.125 C-105.5378656 85.47750199 -107.25892202 84.10586828 -111.0625 83.5625 C-119.8121496 84.53468329 -125.8209067 88.98453155 -131.3125 95.671875 C-138.45407822 105.52460791 -140.03493791 116.00533499 -139 128 C-137.26607636 136.51597938 -133.020881 141.93681377 -127 148 C-172.61621521 156.57244799 -229.02537026 150.24878664 -269.23828125 125.890625 C-275.5038956 121.60129354 -281.48908949 116.84682236 -285 110 C-285.58860497 105.87976519 -285.57622985 103.86434478 -283.25 100.375 C-271.7709153 90.54502325 -251.51840511 87.93810226 -237 89 C-234.73935409 89.47249066 -232.48838448 89.99381531 -230.25 90.5625 C-224.94216164 91.89580868 -221.30665699 92.42142598 -216 91 C-213.23898854 89.17890734 -211.47899452 87.95798903 -210 85 C-209.62637059 80.51644712 -209.61700882 77.90525188 -211.375 73.75 C-218.76172774 66.01152332 -231.31722935 64.95982991 -241.5 64.6875 C-260.20014167 65.03455503 -280.53732431 68.98244669 -296 80 C-296.9075 80.598125 -297.815 81.19625 -298.75 81.8125 C-305.49118628 88.36643111 -309.62710904 96.45665148 -310.1640625 105.87890625 C-309.72896655 118.71423688 -303.01163671 128.3411843 -294 137 C-260.46091559 168.19778707 -206.05655988 174.46826172 -162.375 174.3125 C-160.78377319 174.30976578 -160.78377319 174.30976578 -159.16040039 174.30697632 C-143.88232204 174.26275091 -129.04937521 173.83489552 -114 171 C-113.07670898 170.8443457 -112.15341797 170.68869141 -111.20214844 170.52832031 C-86.54009058 166.36394856 -62.36796047 158.15917205 -40 147 C-39.1145752 146.56010742 -38.22915039 146.12021484 -37.31689453 145.66699219 C-26.78611948 140.39143804 -16.51713688 134.97562873 -7 128 C-5.948125 127.23171875 -4.89625 126.4634375 -3.8125 125.671875 C12.32957333 113.67154926 34.89434772 95.06726051 38.3359375 73.9375 C38.40797373 70.36450316 38.156884 68.30723117 36.5 65.0625 C31.53155013 60.96352886 26.00981823 60.82515147 21 65 Z " fill="#2C8213" transform="translate(2026,1072)"/>
<path d="M0 0 C1.31677734 1.01513672 1.31677734 1.01513672 2.66015625 2.05078125 C5.13892536 3.99752186 7.56959541 5.99316326 10 8 C10.94423828 8.77384033 11.88847656 9.54768066 12.86132812 10.3449707 C22.75950957 18.57870032 31.84210059 27.56841142 40.90698242 36.70117188 C43.45236393 39.26497148 46.00581926 41.8205165 48.56054688 44.375 C50.20620384 46.02556854 51.85140262 47.67659406 53.49609375 49.328125 C54.2472496 50.08039368 54.99840546 50.83266235 55.77232361 51.60772705 C60.37507306 56.2515421 64.73632522 61.04475716 69 66 C70.45445517 67.60768373 71.91220895 69.21239715 73.375 70.8125 C77.22705299 75.079589 80.86937849 79.4810325 84.484375 83.94921875 C87.42925654 87.52057354 90.45738262 91.01195045 93.5 94.5 C98.78904919 100.57193771 103.93881761 106.73616041 109 113 C110.01765561 114.2478638 111.03592745 115.4952252 112.0546875 116.7421875 C117.73761298 123.70442651 123.37015259 130.70053185 128.90576172 137.78051758 C132.24111102 142.04423194 135.61252136 146.27761007 139 150.5 C145.62234614 158.758756 152.15989675 167.08287985 158.67578125 175.42578125 C164.09597585 182.35666699 169.59427399 189.21669253 175.15917969 196.03198242 C178.70089641 200.37715388 182.18113295 204.76453066 185.625 209.1875 C190.46871265 215.39525673 195.50886273 221.415192 200.62939453 227.39550781 C202.45279019 229.53005648 204.26314685 231.67546073 206.07324219 233.82128906 C207.91025362 235.99756245 209.75280866 238.16911383 211.59521484 240.34082031 C213.01117524 242.01319897 214.42159586 243.69014837 215.83203125 245.3671875 C226.79997592 258.35422687 238.50591196 270.58467924 250.5 282.625 C251.33660156 283.46627441 252.17320312 284.30754883 253.03515625 285.17431641 C256.62414206 288.7539409 260.21855884 292.25325862 264.09375 295.5234375 C265.0528125 296.34070313 266.011875 297.15796875 267 298 C267 298.33 267 298.66 267 299 C256.80938369 299.26995746 246.9161332 298.47238005 236.8125 297.3125 C236.02620209 297.22352448 235.23990417 297.13454895 234.42977905 297.0428772 C211.38503774 294.40930062 189.18828718 289.78570366 167 283 C166.03449219 282.70786621 165.06898438 282.41573242 164.07421875 282.11474609 C110.02443288 265.5578851 55.50401109 238.14787831 12 202 C10.33445833 200.68607269 8.66775733 199.37361384 7 198.0625 C2.72901249 194.64838773 -1.34984504 191.06216604 -5.3828125 187.37109375 C-6.81446173 186.07406228 -8.25233318 184.78334559 -9.71801758 183.52490234 C-15.54690283 178.51778471 -21.00340895 173.18017318 -26.4375 167.75 C-27.32759766 166.87214844 -28.21769531 165.99429688 -29.13476562 165.08984375 C-34.41172569 159.82444751 -39.2745203 154.39073332 -43.92871094 148.56835938 C-45.77907551 146.2739422 -47.68302007 144.05861222 -49.64453125 141.859375 C-65.03528843 124.41917274 -77.23794672 104.05012869 -87 83 C-87.79664063 81.28296875 -87.79664063 81.28296875 -88.609375 79.53125 C-100.13416583 53.63017369 -110.16033201 21.10086812 -101 -7 C-97.17690822 -16.08273927 -92.20049603 -23.47259837 -82.9375 -27.375 C-54.04458945 -37.57249784 -21.899641 -17.09714699 0 0 Z " fill="#2C8213" transform="translate(627,441)"/>
<path d="M0 0 C0.33 1.32 0.66 2.64 1 4 C-1.4375 6.75 -1.4375 6.75 -4 9 C-4.66 8.67 -5.32 8.34 -6 8 C-4.02 5.36 -2.04 2.72 0 0 Z " fill="#1A8009" transform="translate(489,283)"/>
<path d="M0 0 C2.35981813 0.93578995 4.69631264 1.93347808 7 3 C3.90521121 4.03159626 2.47368607 3.97482862 -0.6875 3.5625 C-1.89986328 3.40974609 -1.89986328 3.40974609 -3.13671875 3.25390625 C-3.75160156 3.17011719 -4.36648438 3.08632813 -5 3 C-2 1 -2 1 0 0 Z " fill="#1F7D0A" transform="translate(537,256)"/>
<path d="" fill="#408000" transform="translate(0,0)"/>
</svg>
