<?xml version="1.0" encoding="UTF-8"?>
<svg version="1.1" xmlns="http://www.w3.org/2000/svg" width="2360" height="1640">
<path d="M0 0 C99.77096764 -2.13413835 200.81826173 22.12718344 312.58642578 101.08178711 C316.8020705 104.69621384 321.13618811 108.1341875 325.54785156 111.5078125 C326.11890625 112.02214844 326.68996094 112.53648437 327.27832031 113.06640625 C327.27832031 113.72640625 327.27832031 114.38640625 327.27832031 115.06640625 C327.84059326 115.30343262 328.40286621 115.54045898 328.98217773 115.78466797 C331.80480864 117.36029926 333.73604037 119.28214983 336.01660156 121.57421875 C336.91958984 122.47914063 337.82257813 123.3840625 338.75292969 124.31640625 C339.21981201 124.78949219 339.68669434 125.26257813 340.16772461 125.75 C341.57066152 127.17098808 342.98205524 128.58361068 344.39355469 129.99609375 C349.55820159 135.19377677 354.53312589 140.48427749 359.27832031 146.06640625 C360.16710363 147.08770942 361.05639292 148.10857258 361.94628906 149.12890625 C421.60255394 218.68163678 454.96421921 307.5697225 467.52832031 403.94140625 C467.75515503 405.75354614 467.75515503 405.75354614 467.98657227 407.60229492 C470.68500783 430.73326629 471.66081713 453.86780991 471.59637833 477.14598465 C471.59070869 479.23248624 471.58790587 481.3189796 471.58529663 483.40548706 C471.54242943 507.05296393 470.76609456 530.53838175 468.27832031 554.06640625 C468.19346375 554.87478943 468.10860718 555.68317261 468.0211792 556.51605225 C464.54226086 589.25277881 459.77137723 622.47905511 450.27832031 654.06640625 C450.02163574 654.92186035 449.76495117 655.77731445 449.50048828 656.65869141 C448.73830514 659.15572609 447.95374884 661.64388744 447.15332031 664.12890625 C446.80901978 665.21026855 446.80901978 665.21026855 446.45776367 666.31347656 C444.97493171 670.71087665 443.15623149 674.36060281 440.27832031 678.06640625 C436.66030814 679.43321085 434.65203053 679.15637352 430.90332031 678.25390625 C421.67554527 673.71826265 415.76940944 660.97144304 410.32803345 652.54898071 C408.01840711 648.97559754 405.68999289 645.41447307 403.36425781 641.8515625 C402.91482315 641.16211044 402.46538849 640.47265839 402.00233459 639.76231384 C392.10206501 624.58452006 381.93783903 609.83146113 369.56347656 596.5390625 C367.64928148 594.46780526 365.8324442 592.35725924 364.02832031 590.19140625 C353.88026236 578.60374008 341.70306444 569.07087226 329.27832031 560.06640625 C328.66939941 559.62200195 328.06047852 559.17759766 327.43310547 558.71972656 C316.11283472 550.54903461 303.81869018 544.14942149 291.27832031 538.06640625 C290.47362305 537.67146973 289.66892578 537.2765332 288.83984375 536.86962891 C233.06616733 510.14920561 114.77009772 501.90248045 57.27832031 521.06640625 C57.87257813 521.96617187 58.46683594 522.8659375 59.07910156 523.79296875 C82.5369981 559.92847849 96.89144875 602.09997709 100.27832031 645.06640625 C100.34148437 645.86594727 100.40464844 646.66548828 100.46972656 647.48925781 C105.0926446 710.21832124 89.48231966 784.04644092 47.93457031 832.98828125 C46.12945663 835.25318804 44.63557108 837.50737926 43.27832031 840.06640625 C43.4847523 842.31969037 43.4847523 842.31969037 44.27832031 844.06640625 C43.61832031 843.73640625 42.95832031 843.40640625 42.27832031 843.06640625 C42.27832031 842.40640625 42.27832031 841.74640625 42.27832031 841.06640625 C41.31410156 841.83726562 40.34988281 842.608125 39.35644531 843.40234375 C38.08055284 844.41555248 36.80450289 845.42856294 35.52832031 846.44140625 C34.57699219 847.20324219 34.57699219 847.20324219 33.60644531 847.98046875 C32.98769531 848.4703125 32.36894531 848.96015625 31.73144531 849.46484375 C31.16586914 849.91520996 30.60029297 850.36557617 30.01757812 850.82958984 C28.18194995 852.13493689 26.31468912 853.11063928 24.27832031 854.06640625 C33.52544334 861.3431049 42.8293225 868.51277614 52.34082031 875.44140625 C69.74461065 888.20313836 69.74461065 888.20313836 75.18457031 897.96484375 C80.78668803 903.5878649 93.54915453 903.17762185 101.13745117 904.21777344 C102.62730757 904.42476157 104.11711857 904.63207669 105.60688782 904.83969116 C109.64165832 905.40106152 113.67703814 905.9579349 117.71253657 906.51404476 C121.98538111 907.10371402 126.25761971 907.69774139 130.52992249 908.2913208 C138.66027978 909.42029078 146.79113054 910.54566317 154.92218357 911.66961026 C164.00980517 912.92588183 173.09701392 914.18512361 182.1841228 915.44509792 C184.85325654 915.8151518 187.52241077 916.18505757 190.19156837 916.55493927 C198.88175627 917.75940362 207.57160674 918.9662343 216.26083374 920.1776123 C219.57898479 920.64000062 222.8971563 921.10224197 226.21533203 921.56445312 C227.01345771 921.67568984 227.81158338 921.78692656 228.63389468 921.90153408 C237.39808326 923.12236033 246.16378166 924.32683396 254.9369154 925.48205185 C258.84605378 925.99755994 262.75358696 926.52457772 266.6609211 927.05356598 C269.06972675 927.37454351 271.48027686 927.67724487 273.8915863 927.97869873 C288.00220569 929.84191628 301.26673062 934.37884724 314.21191406 940.24609375 C315.04585693 940.61585327 315.8797998 940.98561279 316.73901367 941.36657715 C319.40173223 942.54991159 322.05885801 943.74521084 324.71582031 944.94140625 C326.60303209 945.78390234 328.49048754 946.62585279 330.37817383 947.46728516 C336.01814179 949.9857914 341.64984383 952.52233488 347.27832031 955.06640625 C348.11041016 955.44249023 348.9425 955.81857422 349.79980469 956.20605469 C359.98124803 960.81194572 370.14068166 965.46483075 380.28686523 970.14782715 C382.26973567 971.0624465 384.25339124 971.97534081 386.23730469 972.88769531 C421.96628282 989.32253266 421.96628282 989.32253266 431.27832031 995.06640625 C430.94832031 997.04640625 430.61832031 999.02640625 430.27832031 1001.06640625 C419.67844426 1004.01049482 409.04742366 1006.51793575 398.27832031 1008.75390625 C397.47552643 1008.92148438 396.67273254 1009.0890625 395.84561157 1009.26171875 C362.8545574 1016.13791188 329.7765067 1022.33265949 296.48803711 1027.59179688 C295.48196411 1027.75156006 294.47589111 1027.91132324 293.43933105 1028.07592773 C291.55197838 1028.37487181 289.66413941 1028.67076694 287.77575684 1028.96313477 C286.94475464 1029.09453857 286.11375244 1029.22594238 285.25756836 1029.36132812 C284.53329147 1029.47408081 283.80901459 1029.5868335 283.06278992 1029.70300293 C281.18461098 1030.0050383 281.18461098 1030.0050383 279.27832031 1031.06640625 C266.9226436 1030.99384868 254.59943234 1028.84022237 242.40332031 1027.07421875 C240.26225592 1026.76818692 238.12112039 1026.46265243 235.97991943 1026.15757751 C231.43506565 1025.50926774 226.89067703 1024.85781253 222.34655762 1024.20437622 C215.22688199 1023.18195526 208.10482443 1022.17680314 200.98242188 1021.17358398 C179.64487389 1018.16271308 158.31876479 1015.10935184 137.02790833 1011.78282166 C131.577044 1010.93644156 126.12235931 1010.11505201 120.66739655 1009.2955513 C115.64283037 1008.53759602 110.62752049 1007.73722438 105.61497116 1006.90368176 C102.53174798 1006.40146005 99.44338479 1005.94038193 96.35214996 1005.49038887 C94.95284412 1005.27819555 93.55593297 1005.04931012 92.16255951 1004.80113029 C82.04301642 1003.00953938 76.50636009 1004.6775977 68.30450439 1010.27781677 C65.27832031 1012.06640625 65.27832031 1012.06640625 60.27832031 1012.06640625 C60.60832031 1008.43640625 60.93832031 1004.80640625 61.27832031 1001.06640625 C59.04888672 1000.77636719 59.04888672 1000.77636719 56.77441406 1000.48046875 C55.81269287 1000.35518799 54.85097168 1000.22990723 53.86010742 1000.10083008 C51.75551018 999.82678632 49.65085468 999.55318957 47.54614258 999.2800293 C42.90255175 998.67605175 38.25975925 998.06978743 33.62207031 997.421875 C32.33300781 997.24269531 31.04394531 997.06351563 29.71582031 996.87890625 C28.60078125 996.72035156 27.48574219 996.56179688 26.33691406 996.3984375 C21.80969089 995.87219551 21.80969089 995.87219551 17.27832031 996.06640625 C15.22724909 997.97674398 15.22724909 997.97674398 13.65332031 1000.69140625 C10.42921686 1005.48733749 7.00865286 1009.89338293 3.21582031 1014.25390625 C2.69584473 1014.85299805 2.17586914 1015.45208984 1.64013672 1016.06933594 C0.6361437 1017.22285983 -0.36932601 1018.37510059 -1.37646484 1019.52587891 C-2.51366308 1020.8281876 -3.64035571 1022.13965873 -4.76464844 1023.453125 C-15.02718732 1035.40651696 -26.3401957 1044.43034982 -40.72167969 1051.06640625 C-41.71167969 1051.06640625 -42.70167969 1051.06640625 -43.72167969 1051.06640625 C-44.79185246 1046.36756816 -44.55445907 1043.13699994 -43.28417969 1038.50390625 C-43.11023682 1037.86678711 -42.93629395 1037.22966797 -42.75708008 1036.57324219 C-41.11012613 1030.8303676 -38.88524425 1025.35409794 -36.65917969 1019.81640625 C-33.19766793 1011.18002933 -31.32095404 1002.8965632 -30.19433594 993.6796875 C-29.72167969 990.06640625 -29.72167969 990.06640625 -28.72167969 988.06640625 C-29.34371277 988.01778442 -29.96574585 987.9691626 -30.60662842 987.91906738 C-38.63106471 987.24533903 -46.58001369 986.17299057 -54.54980469 985.03515625 C-55.95217632 984.83696416 -57.3545818 984.63901143 -58.75701904 984.44128418 C-62.41733402 983.92457176 -66.07718291 983.40462994 -69.73693848 982.88397217 C-73.45552791 982.35554531 -77.17456166 981.83026498 -80.89355469 981.3046875 C-90.83722555 979.89868172 -100.78014373 978.48743814 -110.72167969 977.06640625 C-110.31227994 983.82856073 -109.1521416 989.73803373 -106.72167969 996.06640625 C-119.25930121 997.03580998 -126.78993063 993.24092089 -136.31542969 985.328125 C-140.24697628 981.63272649 -143.73075175 977.56115271 -146.72167969 973.06640625 C-146.72167969 972.40640625 -146.72167969 971.74640625 -146.72167969 971.06640625 C-147.99180908 970.99401733 -147.99180908 970.99401733 -149.28759766 970.92016602 C-159.09939198 970.29891876 -168.68869806 968.98281532 -178.39746094 967.43945312 C-191.16116397 965.50577336 -202.23326344 966.07999129 -214.90917969 968.37890625 C-226.29267562 970.35463372 -237.64924743 971.81544836 -249.15917969 972.81640625 C-249.82629974 972.87502838 -250.4934198 972.93365051 -251.18075562 972.99404907 C-255.69204756 973.38551934 -260.20558897 973.73533891 -264.72167969 974.06640625 C-266.02371338 974.16211914 -267.32574707 974.25783203 -268.66723633 974.35644531 C-278.2061629 975.02362783 -287.72260518 975.30847602 -297.28417969 975.31640625 C-298.03224884 975.31708099 -298.78031799 975.31775574 -299.55105591 975.31845093 C-356.41643286 975.23825434 -416.18861686 961.32172003 -467.72167969 937.06640625 C-468.51783691 936.70434082 -469.31399414 936.34227539 -470.13427734 935.96923828 C-489.52031488 927.12790736 -507.28315297 915.22120185 -523.65136719 901.6171875 C-526.3164215 899.40309022 -529.02292748 897.28284975 -531.78417969 895.19140625 C-534.45777055 893.15103427 -536.75497083 891.03742971 -539.03417969 888.56640625 C-539.92105469 887.74140625 -540.80792969 886.91640625 -541.72167969 886.06640625 C-546.14309881 886.57008423 -549.71129046 889.32171116 -553.40917969 891.62890625 C-554.579729 892.35158691 -554.579729 892.35158691 -555.77392578 893.08886719 C-563.58665776 897.93521909 -571.31919263 902.90789729 -579.05419922 907.87695312 C-589.22602722 914.40731892 -599.47190862 920.8149105 -609.73339844 927.203125 C-612.74302028 929.07971274 -615.74857585 930.9626477 -618.75292969 932.84765625 C-629.55484813 939.62222943 -640.3936714 946.32852893 -651.29492188 952.94213867 C-658.42236695 957.26794957 -665.51978527 961.63995989 -672.60400391 966.03613281 C-678.47010911 969.67550344 -684.34654669 973.2976111 -690.22875977 976.91088867 C-702.76706666 984.61316346 -715.26272874 992.38076722 -727.73193359 1000.19433594 C-730.78292428 1002.10475539 -733.83595247 1004.01187686 -736.88964844 1005.91796875 C-755.56856741 1017.57749675 -774.18455422 1029.33327974 -792.75048828 1041.171875 C-794.79738233 1042.47704327 -796.84460213 1043.78170075 -798.89208984 1045.0859375 C-802.14887583 1047.16105778 -805.40419463 1049.23846245 -808.65917969 1051.31640625 C-809.64031738 1051.9412793 -810.62145508 1052.56615234 -811.63232422 1053.20996094 C-817.62966871 1057.04290289 -823.57290513 1060.95105692 -829.48832703 1064.90879822 C-835.02280618 1068.60880526 -840.58056448 1072.272715 -846.14355469 1075.9296875 C-847.06278214 1076.53430817 -847.98200958 1077.13892883 -848.92909241 1077.76187134 C-852.72317913 1080.25728451 -856.51748068 1082.75236475 -860.31347656 1085.24487305 C-870.31274596 1091.81185354 -880.2896572 1098.40678636 -890.16699219 1105.15625 C-891.30802399 1105.93528435 -891.30802399 1105.93528435 -892.47210693 1106.73005676 C-896.99852724 1109.83716236 -901.44797924 1113.03122927 -905.84667969 1116.31640625 C-920.39775099 1127.12479576 -935.6350258 1137.02835811 -950.72167969 1147.06640625 C-953.00428916 1148.58776466 -955.286567 1150.10961825 -957.56860352 1151.63183594 C-959.05703287 1152.62355959 -960.54652301 1153.61369236 -962.03686523 1154.60253906 C-965.50468336 1156.90590843 -968.96036146 1159.21900427 -972.36621094 1161.61328125 C-973.93435547 1162.70382812 -973.93435547 1162.70382812 -975.53417969 1163.81640625 C-976.87416016 1164.76773437 -976.87416016 1164.76773437 -978.24121094 1165.73828125 C-981.02862937 1167.23075726 -982.61857338 1167.17625072 -985.72167969 1167.06640625 C-991.30070021 1149.71848504 -994.42777654 1131.46164863 -996.97167969 1113.44140625 C-997.12241943 1112.39815186 -997.27315918 1111.35489746 -997.4284668 1110.2800293 C-1000.41523293 1087.88684688 -1001.1016555 1065.38175155 -1001.0397377 1042.81586838 C-1001.03407433 1040.71482008 -1001.03126802 1038.61377994 -1001.02865601 1036.51272583 C-1000.98984846 1015.00165654 -1000.41446442 993.65588354 -997.97167969 972.26818848 C-997.71232009 969.98397511 -997.46431755 967.69871581 -997.21777344 965.41308594 C-988.0948503 881.81697141 -964.74264618 800.01702346 -898.58428955 647.82092285 C-897.79840476 646.22246221 -897.01549583 644.62253936 -896.23291016 643.02246094 C-876.26858173 602.21270096 -852.8268592 562.9056296 -827.72167969 525.06640625 C-826.97000908 523.92602408 -826.21864763 522.78543798 -825.46777344 521.64453125 C-823.56854223 518.77387698 -821.65029652 515.91740505 -819.72167969 513.06640625 C-819.26647949 512.39254883 -818.8112793 511.71869141 -818.34228516 511.02441406 C-810.8663337 499.97383702 -803.1987269 489.08313536 -795.34228516 478.30029297 C-793.72009498 476.06422184 -792.11149915 473.81898771 -790.50683594 471.5703125 C-780.97778334 458.23657224 -770.98248628 445.29158895 -760.69433594 432.53515625 C-759.18751134 430.64938764 -757.69741717 428.75457976 -756.21777344 426.84765625 C-750.9938799 420.12341298 -745.64419657 413.55195435 -740.0690918 407.11523438 C-736.99454169 403.56371109 -733.98851359 399.96950434 -731.03417969 396.31640625 C-727.43412801 391.88306956 -723.68264482 387.62127279 -719.83886719 383.3984375 C-717.941168 381.30816736 -716.07434554 379.1965451 -714.22167969 377.06640625 C-706.54345899 368.26110728 -698.64263391 359.65306503 -690.72167969 351.06640625 C-689.96966278 350.24903992 -689.96966278 350.24903992 -689.20245361 349.41516113 C-678.50013866 337.80539797 -667.40721225 326.59527768 -656.23071289 315.44506836 C-653.75439426 312.9745098 -651.28268277 310.49939765 -648.81221104 308.02299404 C-646.41077514 305.61705272 -644.00551268 303.21495199 -641.60058594 300.8125 C-640.72648575 299.93637558 -639.85238556 299.06025116 -638.95179749 298.15757751 C-634.56084992 293.78326786 -630.10592334 289.55520503 -625.40562439 285.51454163 C-623.4614098 283.84258297 -621.58292651 282.11127071 -619.72167969 280.34765625 C-619.06167969 279.72503906 -618.40167969 279.10242188 -617.72167969 278.4609375 C-617.06167969 277.83574219 -616.40167969 277.21054687 -615.72167969 276.56640625 C-610.48919255 271.60985105 -605.18025907 266.7732804 -599.72167969 262.06640625 C-598.87234863 261.33381592 -598.87234863 261.33381592 -598.00585938 260.58642578 C-596.3718161 259.18114856 -594.73492237 257.77928498 -593.09667969 256.37890625 C-589.45538399 253.26616984 -585.8157925 250.1520517 -582.19824219 247.01171875 C-575.95236664 241.60049699 -569.62717133 236.34016527 -563.09912109 231.2722168 C-559.37424442 228.37800511 -555.70402463 225.4277305 -552.06103516 222.43115234 C-542.95292942 214.94407661 -533.56778292 207.86592812 -524.10107422 200.84033203 C-521.91152359 199.20794183 -519.73376683 197.56156776 -517.56152344 195.90625 C-509.02908765 189.41406427 -500.29827142 183.284373 -491.42089844 177.2734375 C-487.77832382 174.80176994 -484.18650536 172.26936977 -480.61230469 169.70019531 C-468.96127677 161.34013119 -456.8631762 153.68954959 -444.72167969 146.06640625 C-443.66239258 145.40060547 -442.60310547 144.73480469 -441.51171875 144.04882812 C-415.85769398 127.97282975 -389.58536492 113.02604177 -362.72167969 99.06640625 C-361.72615082 98.54883759 -361.72615082 98.54883759 -360.71051025 98.02081299 C-287.31610387 59.94251476 -208.45817446 30.20390181 0 0 Z M-43.72167969 108.06640625 C-44.33914063 108.65808594 -44.95660156 109.24976563 -45.59277344 109.859375 C-55.49399575 119.84576911 -57.02656246 134.06335281 -57.03637695 147.43505859 C-56.78935234 165.34068849 -49.51017009 179.60304696 -36.72167969 192.06640625 C-24.92796529 203.01149544 -9.03686729 208.82095052 6.99707031 208.34375 C23.79739742 206.92372235 39.54316862 199.28234564 50.55957031 186.3984375 C61.50245425 171.92361528 65.7615421 157.06371342 64.27832031 139.06640625 C62.12923651 123.79000219 53.64444973 109.60514471 41.78613281 99.79296875 C14.21240057 80.80918425 -20.80604807 83.01003622 -43.72167969 108.06640625 Z " fill="#FDA944" transform="translate(1405.7216796875,226.93359375)"/>
<path d="M0 0 C0.67095703 0.00515625 1.34191406 0.0103125 2.03320312 0.015625 C6.55199534 0.08226157 11.03159874 0.40052251 15.53540039 0.76489258 C22.51265048 1.26988278 29.41543144 1.30547631 36.40625 1.21484375 C38.89452608 1.20881759 41.38281044 1.20564891 43.87109375 1.20507812 C47.72271509 1.20336019 51.57123682 1.18735466 55.42236328 1.12329102 C71.40830575 0.87780789 82.31673484 0.88834587 94.0625 12.25 C95.90178986 13.66153698 97.75915907 15.04993807 99.63671875 16.41015625 C104.01952226 19.74198775 108.3841368 23.0974952 112.74121094 26.46289062 C114.67505443 27.95171418 116.61946416 29.42426275 118.5703125 30.890625 C124.2822188 35.31377249 128.14507272 39.71341914 131.8203125 45.96484375 C137.49937995 51.75274351 150.1705918 51.33890799 157.92163086 52.40136719 C159.41148726 52.60835532 160.90129826 52.81567044 162.3910675 53.02328491 C166.42583801 53.58465527 170.46121783 54.14152865 174.49671626 54.69763851 C178.7695608 55.28730777 183.0417994 55.88133514 187.31410217 56.47491455 C195.44445947 57.60388453 203.57531023 58.72925692 211.70636326 59.85320401 C220.79398486 61.10947558 229.88119361 62.36871736 238.96830249 63.62869167 C241.63743623 63.99874555 244.30659046 64.36865132 246.97574806 64.73853302 C255.66593596 65.94299737 264.35578643 67.14982805 273.04501343 68.36120605 C276.36316448 68.82359437 279.68133599 69.28583572 282.99951172 69.74804688 C283.79763739 69.85928359 284.59576307 69.97052031 285.41807437 70.08512783 C294.18226294 71.30595408 302.94796135 72.51042771 311.72109509 73.6656456 C315.63023347 74.18115369 319.53776665 74.70817147 323.44510078 75.23715973 C325.85390644 75.55813726 328.26445654 75.86083862 330.67576599 76.16229248 C344.78638537 78.02551003 358.05091031 82.56244099 370.99609375 88.4296875 C371.83003662 88.79944702 372.66397949 89.16920654 373.52319336 89.5501709 C376.18591191 90.73350534 378.8430377 91.92880459 381.5 93.125 C383.38721178 93.96749609 385.27466723 94.80944654 387.16235352 95.65087891 C392.80232148 98.16938515 398.43402352 100.70592863 404.0625 103.25 C405.31063477 103.81412598 405.31063477 103.81412598 406.58398438 104.38964844 C416.76542772 108.99553947 426.92486135 113.6484245 437.07104492 118.3314209 C439.05391536 119.24604025 441.03757093 120.15893456 443.02148438 121.07128906 C478.75046251 137.50612641 478.75046251 137.50612641 488.0625 143.25 C487.7325 145.23 487.4025 147.21 487.0625 149.25 C476.46262395 152.19408857 465.83160335 154.7015295 455.0625 156.9375 C454.25970612 157.10507813 453.45691223 157.27265625 452.62979126 157.4453125 C419.63873709 164.32150563 386.56068638 170.51625324 353.2722168 175.77539062 C352.2661438 175.93515381 351.2600708 176.09491699 350.22351074 176.25952148 C348.33615806 176.55846556 346.4483191 176.85436069 344.55993652 177.14672852 C343.31343323 177.34383423 343.31343323 177.34383423 342.04174805 177.54492188 C341.31747116 177.65767456 340.59319427 177.77042725 339.8469696 177.88659668 C337.96879067 178.18863205 337.96879067 178.18863205 336.0625 179.25 C323.70682329 179.17744243 311.38361203 177.02381612 299.1875 175.2578125 C297.0464356 174.95178067 294.90530007 174.64624618 292.76409912 174.34117126 C288.21924534 173.69286149 283.67485672 173.04140628 279.1307373 172.38796997 C272.01106168 171.36554901 264.88900412 170.36039689 257.76660156 169.35717773 C236.42905358 166.34630683 215.10294447 163.29294559 193.81208801 159.96641541 C188.36122369 159.12003531 182.906539 158.29864576 177.45157623 157.47914505 C172.42701005 156.72118977 167.41170018 155.92081813 162.39915085 155.08727551 C159.31592767 154.5850538 156.22756448 154.12397568 153.13632965 153.67398262 C151.73702381 153.4617893 150.34011266 153.23290387 148.9467392 152.98472404 C138.82719611 151.19313313 133.29053978 152.86119145 125.08868408 158.46141052 C122.0625 160.25 122.0625 160.25 117.0625 160.25 C117.3925 156.62 117.7225 152.99 118.0625 149.25 C116.57621094 149.05664062 115.08992188 148.86328125 113.55859375 148.6640625 C112.59687256 148.53878174 111.63515137 148.41350098 110.64428711 148.28442383 C108.53968986 148.01038007 106.43503436 147.73678332 104.33032227 147.46362305 C99.68673144 146.8596455 95.04393894 146.25338118 90.40625 145.60546875 C89.1171875 145.42628906 87.828125 145.24710938 86.5 145.0625 C85.38496094 144.90394531 84.26992187 144.74539063 83.12109375 144.58203125 C78.59387058 144.05578926 78.59387058 144.05578926 74.0625 144.25 C72.01142877 146.16033773 72.01142877 146.16033773 70.4375 148.875 C67.21339655 153.67093124 63.79283255 158.07697668 60 162.4375 C59.48002441 163.0365918 58.96004883 163.63568359 58.42431641 164.25292969 C57.42032339 165.40645358 56.41485368 166.55869434 55.40771484 167.70947266 C54.2705166 169.01178135 53.14382398 170.32325248 52.01953125 171.63671875 C41.75699237 183.59011071 30.44398399 192.61394357 16.0625 199.25 C15.0725 199.25 14.0825 199.25 13.0625 199.25 C11.99232722 194.55116191 12.22972062 191.32059369 13.5 186.6875 C13.67394287 186.05038086 13.84788574 185.41326172 14.02709961 184.75683594 C15.67405356 179.01396135 17.89893544 173.53769169 20.125 168 C23.58651176 159.36362308 25.46322565 151.08015695 26.58984375 141.86328125 C27.0625 138.25 27.0625 138.25 28.0625 136.25 C27.44046692 136.20137817 26.81843384 136.15275635 26.17755127 136.10266113 C18.15311497 135.42893278 10.204166 134.35658432 2.234375 133.21875 C0.83200337 133.02055791 -0.57040211 132.82260518 -1.97283936 132.62487793 C-5.63315433 132.10816551 -9.29300322 131.58822369 -12.95275879 131.06756592 C-16.67134823 130.53913906 -20.39038197 130.01385873 -24.109375 129.48828125 C-34.05304586 128.08227547 -43.99596405 126.67103189 -53.9375 125.25 C-53.52810025 132.01215448 -52.36796191 137.92162748 -49.9375 144.25 C-62.46921574 145.21894709 -70.02569809 141.43205989 -79.53515625 133.5 C-84.93351919 128.44397227 -89.61352807 123.63579382 -90.9375 116.25 C-91.41832031 115.16976563 -91.89914062 114.08953125 -92.39453125 112.9765625 C-100.23421442 95.33370105 -97.53896063 75.66388084 -90.9375 58.25 C-85.32177006 44.6862689 -75.97449511 32.61233489 -63.9375 24.25 C-63.25945312 23.75886719 -62.58140625 23.26773437 -61.8828125 22.76171875 C-50.99944706 15.35316276 -38.62677592 14.86595422 -25.9375 17.25 C-25.9375 16.59 -25.9375 15.93 -25.9375 15.25 C-18.60099003 7.22569222 -11.36848975 -0.33222984 0 0 Z " fill="#1B3048" transform="translate(1348.9375,1078.75)"/>
<path d="M0 0 C1.50578954 0.07428799 3.0077449 0.2273998 4.50416565 0.41082764 C5.95623744 0.58593306 5.95623744 0.58593306 7.437644 0.76457596 C8.50566533 0.89995144 9.57368666 1.03532692 10.67407227 1.17480469 C12.3506949 1.38217318 12.3506949 1.38217318 14.0611887 1.59373093 C27.10905384 3.22900213 40.12948982 5.06301562 53.14869761 6.91031361 C56.70836033 7.41478412 60.26845961 7.91615663 63.82850647 8.41790771 C70.58597113 9.37074446 77.34307312 10.32612676 84.10003334 11.28253341 C89.37425184 12.02899854 94.64861474 12.77443472 99.9230957 13.51904297 C100.66053996 13.62315286 101.39798423 13.72726275 102.15777528 13.83452749 C105.86337417 14.35761632 109.56900384 14.88048627 113.27466774 15.40311432 C119.84968894 16.33059033 126.42454966 17.25911483 132.99847806 18.19430971 C136.56251043 18.70130914 140.12667324 19.20738631 143.69091797 19.71289062 C144.38396113 19.81119014 145.07700429 19.90948965 145.79104877 20.01076794 C155.46334603 21.38063726 165.14253484 22.68984666 174.82861328 23.95898438 C178.22292038 24.41021891 181.61704803 24.8627773 185.01111031 25.3158493 C188.05775385 25.7167864 191.10633727 26.09885239 194.15550232 26.4800415 C209.62164756 28.49744808 223.72552344 32.74005292 237.93359375 39.1796875 C238.76753662 39.54944702 239.60147949 39.91920654 240.46069336 40.3001709 C243.12341191 41.48350534 245.7805377 42.67880459 248.4375 43.875 C250.32471178 44.71749609 252.21216723 45.55944654 254.09985352 46.40087891 C259.73982148 48.91938515 265.37152352 51.45592863 271 54 C272.24813477 54.56412598 272.24813477 54.56412598 273.52148438 55.13964844 C283.70292772 59.74553947 293.86236135 64.3984245 304.00854492 69.0814209 C305.99141536 69.99604025 307.97507093 70.90893456 309.95898438 71.82128906 C345.68796251 88.25612641 345.68796251 88.25612641 355 94 C354.67 95.98 354.34 97.96 354 100 C343.40012395 102.94408857 332.76910335 105.4515295 322 107.6875 C321.19720612 107.85507813 320.39441223 108.02265625 319.56729126 108.1953125 C286.57623709 115.07150563 253.49818638 121.26625324 220.2097168 126.52539062 C219.2036438 126.68515381 218.1975708 126.84491699 217.16101074 127.00952148 C215.27365806 127.30846556 213.3858191 127.60436069 211.49743652 127.89672852 C210.66643433 128.02813232 209.83543213 128.15953613 208.97924805 128.29492188 C208.25497116 128.40767456 207.53069427 128.52042725 206.7844696 128.63659668 C204.90629067 128.93863205 204.90629067 128.93863205 203 130 C190.63310482 129.92734338 178.29756893 127.77204065 166.08984375 126.0078125 C163.94547021 125.70217711 161.80102347 125.39705496 159.6565094 125.09240723 C153.93167037 124.27781309 148.20779859 123.45660713 142.48410034 122.63404083 C136.5433272 121.78136621 130.60172466 120.93451466 124.66015625 120.08740234 C117.44367976 119.05828022 110.22725666 118.02879669 103.01119995 116.99673462 C87.9182866 114.83874833 72.82223725 112.70455335 57.72265625 110.59375 C55.86921142 110.33433903 54.01577199 110.07488941 52.16233826 109.81539917 C41.80048245 108.36490856 41.80048245 108.36490856 31.43771362 106.92095947 C27.51908152 106.37619181 23.60090455 105.828264 19.68305779 105.27787781 C18.26565091 105.07939986 16.84806808 104.88217387 15.43029976 104.68629456 C13.52144839 104.42247498 11.61324135 104.15400553 9.70507812 103.88525391 C8.64357544 103.73730377 7.58207275 103.58935364 6.48840332 103.43692017 C4 103 4 103 2 102 C3.26243031 98.55536872 4.72708479 95.77840364 6.875 92.8125 C16.45760576 78.69568567 18.23996983 60.62930283 15.51513672 44.04980469 C12.34254997 28.70510223 6.8982867 14.5202113 -1 1 C-0.67 0.67 -0.34 0.34 0 0 Z " fill="#ED1C23" transform="translate(1482,1128)"/>
<path d="M0 0 C1.93094731 0.25942944 3.86193673 0.51854564 5.79296875 0.77734375 C7.7161836 1.03617789 9.63936182 1.2952843 11.5625 1.5546875 C12.39765137 1.66730927 13.23280273 1.77993103 14.09326172 1.89596558 C20.33739299 2.74564445 26.57561728 3.63451761 32.81347656 4.52880859 C43.01390577 5.99044805 53.21960102 7.41198909 63.42742157 8.82097626 C66.54269373 9.25105461 69.6578637 9.68186687 72.77301025 10.112854 C81.61692489 11.33634468 90.46095913 12.55896781 99.30517578 13.78027344 C130.88278726 18.1414297 162.44713256 22.58820252 194 27.125 C191.63580433 30.15482225 189.7408051 32.47549373 186.4375 34.4375 C172.13850196 44.77347985 164.47516145 65.47869607 161 82.125 C159.35124304 95.3304646 162.09782948 111.20081794 168 123.125 C161.89140278 123.26536664 156.10196988 122.7436496 150.05859375 121.8828125 C149.13208511 121.75437958 148.20557648 121.62594666 147.25099182 121.49362183 C145.30342779 121.22221885 143.35624094 120.94809661 141.40942383 120.67138672 C138.44391418 120.25090946 135.47700483 119.84166587 132.50976562 119.43359375 C130.60928085 119.16733786 128.7088869 118.90043263 126.80859375 118.6328125 C125.48957314 118.45143234 125.48957314 118.45143234 124.14390564 118.26638794 C119.27687874 117.56670602 114.72706813 116.51295664 110 115.125 C107.89660758 114.76900349 105.78484803 114.45953836 103.66796875 114.1953125 C102.47179932 114.04199463 101.27562988 113.88867676 100.04321289 113.73071289 C98.77082764 113.57207764 97.49844238 113.41344238 96.1875 113.25 C93.46041306 112.90113508 90.7340087 112.54715996 88.0078125 112.19140625 C87.32386917 112.10235519 86.63992584 112.01330414 85.93525696 111.92155457 C79.79350365 111.11396855 73.67894149 110.16559847 67.5625 109.1875 C56.25999071 107.39938889 44.92881523 105.93158087 33.5760498 104.50869751 C16.30868038 102.34137187 -0.92045572 99.92102057 -18.14648438 97.44799805 C-20.1848211 97.15751548 -22.22323035 96.86754129 -24.26171875 96.578125 C-25.2252829 96.44042191 -26.18884705 96.30271881 -27.18161011 96.1608429 C-33.04939385 95.3404052 -38.87670031 94.72083479 -44.80395508 94.52246094 C-47.55582191 94.02440211 -48.96646201 93.01706949 -51 91.125 C-53.23694549 81.46994849 -49.76287246 69.84343511 -48.0703125 60.3046875 C-47.09709901 54.80117373 -46.30223202 49.28887754 -45.5625 43.75 C-44.01716294 32.43248547 -41.83473841 21.23997978 -39.57763672 10.04541016 C-39.19093489 8.09032679 -38.82289362 6.13146439 -38.47314453 4.16943359 C-38.3079834 3.2614502 -38.14282227 2.3534668 -37.97265625 1.41796875 C-37.76201538 0.20983521 -37.76201538 0.20983521 -37.54711914 -1.02270508 C-37.36656982 -1.6339624 -37.18602051 -2.24521973 -37 -2.875 C-28.39076579 -7.17961711 -9.32881557 -1.26908991 0 0 Z " fill="#EC1C24" transform="translate(1092,1074.875)"/>
<path d="M0 0 C8.12772404 1.42147963 15.24327026 4.47128929 22.75 7.8125 C24.08218531 8.39860563 25.4146288 8.98412474 26.74731445 9.5690918 C30.17540042 11.07687777 33.59855835 12.59548972 37.01983643 14.11865234 C38.90039259 14.95566591 40.78182237 15.79067865 42.66357422 16.625 C61.42534596 24.95315502 80.09667411 33.48205763 98.75 42.04980469 C102.20554883 43.63658861 105.66402055 45.21687767 109.12342834 46.79522705 C111.67437699 47.96055544 114.22298974 49.13092225 116.77096558 50.30273438 C118.49410607 51.09360905 120.21978236 51.87895165 121.94555664 52.6640625 C128.56859371 55.71983296 134.83309149 59.10320888 141 63 C140.67 64.98 140.34 66.96 140 69 C129.40007296 71.94410274 118.76901887 74.4509688 108 76.6875 C106.79929871 76.93836868 106.79929871 76.93836868 105.57434082 77.19430542 C75.98867084 83.36718484 46.3034179 89.0434783 16.5 94.0625 C15.60518921 94.21470001 14.71037842 94.36690002 13.78845215 94.52371216 C11.2662733 94.95085724 8.74286178 95.36960399 6.21875 95.78515625 C5.485495 95.90967163 4.75223999 96.03418701 3.99676514 96.16247559 C-0.41178545 96.87410873 -4.55443893 97.1130289 -9 97 C-9.49640293 84.50412883 -8.01278003 72.16245741 -6.75 59.75 C-6.52305614 57.47551824 -6.29625048 55.2010227 -6.06958008 52.92651367 C-4.29305625 35.25318497 -2.28394485 17.614852 0 0 Z " fill="#FEFEFE" transform="translate(1696,1159)"/>
<path d="M0 0 C14.35492537 13.02636568 23.44200794 36.7613404 24.57421875 55.95703125 C24.60058024 58.95235585 24.59364447 61.84745986 24.23046875 64.8203125 C23.90046875 65.1503125 23.57046875 65.4803125 23.23046875 65.8203125 C14.59795851 65.60398817 5.93744036 64.0076046 -2.59765625 62.7890625 C-4.00002788 62.59087041 -5.40243336 62.39291768 -6.80487061 62.19519043 C-10.46518558 61.67847801 -14.12503447 61.15853619 -17.78479004 60.63787842 C-21.50337948 60.10945156 -25.22241322 59.58417123 -28.94140625 59.05859375 C-36.55126714 57.98258183 -44.16069274 56.90353386 -51.76953125 55.8203125 C-53.67203644 55.57516907 -53.67203644 55.57516907 -55.61297607 55.32507324 C-58.76953125 54.8203125 -58.76953125 54.8203125 -59.76953125 53.8203125 C-60.17423956 48.18330391 -59.1490267 43.79205664 -57.26953125 38.5703125 C-57.00543457 37.82813477 -56.74133789 37.08595703 -56.46923828 36.32128906 C-53.95441412 29.64694285 -50.3530819 24.27603675 -45.76953125 18.8203125 C-45.12242188 17.97984375 -44.4753125 17.139375 -43.80859375 16.2734375 C-37.3066634 8.45119179 -29.23136188 4.13695948 -19.76953125 0.8203125 C-18.8775 0.48902344 -17.98546875 0.15773438 -17.06640625 -0.18359375 C-11.19015215 -2.19341686 -5.57109554 -3.71406369 0 0 Z " fill="#EC1B23" transform="translate(1353.76953125,1149.1796875)"/>
<path d="M0 0 C16.07851485 6.07410561 27.61973152 17.56237332 34.95703125 33.015625 C40.92368025 47.47666593 39.45815793 63.79349587 38 79 C33.08130308 80.47342299 28.71767173 79.58126507 23.76171875 78.78515625 C22.88095169 78.65056503 22.00018463 78.51597382 21.09272766 78.37730408 C18.28967384 77.94707803 15.48864554 77.50496323 12.6875 77.0625 C10.78332463 76.76809328 8.87902879 76.47446455 6.97460938 76.18164062 C2.31496219 75.46343533 -2.34290492 74.73456457 -7 74 C-8 71 -8 71 -6.7421875 68.09375 C-6.12289705 66.89422499 -5.50025001 65.69642941 -4.875 64.5 C4.82878956 44.72642429 5.36163335 26.28838662 1 5 C0.80277344 4.01257812 0.60554688 3.02515625 0.40234375 2.0078125 C0.26957031 1.34523438 0.13679688 0.68265625 0 0 Z " fill="#EB1C24" transform="translate(1431,1148)"/>
<path d="M0 0 C9.84959624 4.22550655 19.6267327 8.6084429 29.375 13.0625 C30.46731934 13.5565332 31.55963867 14.05056641 32.68505859 14.55957031 C39.40123861 17.64364507 45.7547813 21.04667687 52 25 C51.67 26.98 51.34 28.96 51 31 C40.36091668 33.98155169 29.66742132 36.46593374 18.8527832 38.71972656 C16.27618505 39.25758059 13.70155065 39.80422052 11.12695312 40.3515625 C9.47667135 40.69843491 7.82628456 41.04480822 6.17578125 41.390625 C5.41227859 41.55306702 4.64877594 41.71550903 3.86213684 41.88287354 C0.47191585 42.58396624 -2.51969367 43 -6 43 C-1.7162413 1.7162413 -1.7162413 1.7162413 0 0 Z " fill="#1B3149" transform="translate(1785,1197)"/>
<path d="M0 0 C0 3 0 3 -1.53125 4.60546875 C-2.1809375 5.12753906 -2.830625 5.64960938 -3.5 6.1875 C-4.1496875 6.71730469 -4.799375 7.24710937 -5.46875 7.79296875 C-5.9740625 8.19128906 -6.479375 8.58960938 -7 9 C-7 6 -7 6 -5.46875 4.39453125 C-4.49421875 3.61142578 -4.49421875 3.61142578 -3.5 2.8125 C-2.8503125 2.28269531 -2.200625 1.75289063 -1.53125 1.20703125 C-1.0259375 0.80871094 -0.520625 0.41039062 0 0 Z " fill="#FFAE37" transform="translate(802,493)"/>
<path d="M0 0 C0.33 0.66 0.66 1.32 1 2 C0.34 1.67 -0.32 1.34 -1 1 C-0.67 0.67 -0.34 0.34 0 0 Z " fill="#FFD42A" transform="translate(1471,1097)"/>
<path d="" fill="#FFE21C" transform="translate(0,0)"/>
<path d="" fill="#FFBFBF" transform="translate(0,0)"/>
<path d="" fill="#FFFF00" transform="translate(0,0)"/>
<path d="" fill="#FFAA55" transform="translate(0,0)"/>
<path d="" fill="#FFFF00" transform="translate(0,0)"/>
<path d="" fill="#FFFF00" transform="translate(0,0)"/>
</svg>
